/* XPM */
static char *c50[] = {
/* columns rows colors chars-per-pixel */
"32 32 2 1 ",
"  c #555555",
"x c #FFFF00",
/* pixels */
"                                ",
"                                ",
"                                ",
"                                ",
"                                ",
"                                ",
"      xxxxxxxxxxxxxxxxxxxx      ",
"      xxxxxxxxxxxxxxxxxxxx      ",
"      xxx                       ",
"      xxx                       ",
"      xxx                       ",
"      xxx                       ",
"      xxx                       ",
"      xxx                       ",
"      xxx                       ",
"      xxxxxxxxxxxxxxxxxxxx      ",
"      xxxxxxxxxxxxxxxxxxxx      ",
"      xxx                       ",
"      xxx                       ",
"      xxx                       ",
"      xxx                       ",
"      xxx                       ",
"      xxx                       ",
"      xxx                       ",
"      xxxxxxxxxxxxxxxxxxxx      ",
"      xxxxxxxxxxxxxxxxxxxx      ",
"                                ",
"                                ",
"                                ",
"                                ",
"                                ",
"                                "
};