/* XPM */
static char *c50[] = {
/* columns rows colors chars-per-pixel */
"32 32 2 1 ",
"  c #555555",
"x c #00FF00",
/* pixels */
"                                ",
"                                ",
"                                ",
"                                ",
"                                ",
"                                ",
"      xx                xx      ",
"      xxx               xx      ",
"      xxxx              xx      ",
"      xxxxx             xx      ",
"      xx xxx            xx      ",
"      xx  xxx           xx      ",
"      xx   xxx          xx      ",
"      xx    xxx         xx      ",
"      xx     xxx        xx      ",
"      xx      xxx       xx      ",
"      xx       xxx      xx      ",
"      xx        xxx     xx      ",
"      xx         xxx    xx      ",
"      xx          xxx   xx      ",
"      xx           xxx  xx      ",
"      xx            xxx xx      ",
"      xx             xxxxx      ",
"      xx              xxxx      ",
"      xx               xxx      ",
"      xx                xx      ",
"                                ",
"                                ",
"                                ",
"                                ",
"                                ",
"                                "
};