/* XPM */
static char *c50[] = {
/* columns rows colors chars-per-pixel */
"32 32 2 1 ",
"  c #555555",
"x c #00FFFF",
/* pixels */
"                                ",
"                                ",
"                                ",
"                                ",
"                                ",
"                                ",
"      xxxxxxxxxxxxxxxxxxxx      ",
"      xxxxxxxxxxxxxxxxxxxx      ",
"      xx                        ",
"      xx                        ",
"      xx                        ",
"      xx                        ",
"      xx                        ",
"      xx                        ",
"      xx                        ",
"      xxxxxxxxxxxxxxxxxxxx      ",
"      xxxxxxxxxxxxxxxxxxxx      ",
"                        xx      ",
"                        xx      ",
"                        xx      ",
"                        xx      ",
"                        xx      ",
"                        xx      ",
"                        xx      ",
"      xxxxxxxxxxxxxxxxxxxx      ",
"      xxxxxxxxxxxxxxxxxxxx      ",
"                                ",
"                                ",
"                                ",
"                                ",
"                                ",
"                                "
};