/* XPM */
static char *c50[] = {
/* columns rows colors chars-per-pixel */
"32 32 2 1 ",
"  c #555555",
"x c #CC00CC",
/* pixels */
"                                ",
"                                ",
"                                ",
"                                ",
"                                ",
"                                ",
"      xx       xx       xx      ",
"      xx       xx       xx      ",
"      xx       xx       xx      ",
"      xx       xx       xx      ",
"       xx     xxxx     xx       ",
"       xx     xxxx     xx       ",
"       xx     xxxx     xx       ",
"       xx     xxxx     xx       ",
"        xx   xx  xx   xx        ",
"        xx   xx  xx   xx        ",
"        xx   xx  xx   xx        ",
"        xx   xx  xx   xx        ",
"         xx xx    xx xx         ",
"         xx xx    xx xx         ",
"         xx xx    xx xx         ",
"         xx xx    xx xx         ",
"          xxx      xxx          ",
"          xxx      xxx          ",
"          xxx      xxx          ",
"          xxx      xxx          ",
"                                ",
"                                ",
"                                ",
"                                ",
"                                ",
"                                "
};